# xmcd
#
# Track frame offsets: 
#        150
#        18381
#        39409
#        81130
#        106543
#
# Disc length: 1930 seconds
#
# Revision: 0
# Processed by: cddbd v1.5.2PL0 Copyright (c) Steve Scherf et al.
# Submitted via: ExactAudioCopy v0.99pb4
#
DISCID=2a078805
DTITLE=Al Rayyis Abdin - Festival Al Fallahin of Egypt
DYEAR=1999
DGENRE=Ethnic
TTITLE0=Mawwal Ahbab
TTITLE1=Samah Ya Dunya
TTITLE2=Ya Tabib
TTITLE3=Bahri Ya Bouy
TTITLE4=Mahsoubkom Das
EXTD=
EXTT0=
EXTT1=
EXTT2=
EXTT3=
EXTT4=
PLAYORDER=
